# xmcd CD database file
#
# Track frame offsets:
#	150
#	17462
#	64075
#	94437
#	116200
#	140950
#	152925
#	172000
#	206137
#	237350
#	263825
#	295100
#	309550
#
# Disc length: 4347 seconds
#
# Revision: 0
# Processed by: cddbd v1.5PL3 Copyright (c) Steve Scherf et al.
# Submitted via: CDex 1.50beta8
#
DISCID=c910f90d
DTITLE=Ono Seigen - Maria and Maria
DYEAR=2002
DGENRE=New Age
TTITLE0=Dragonfish
TTITLE1=Maria 4
TTITLE2=She is She
TTITLE3=Maria 9
TTITLE4=Anchory Pasta
TTITLE5=Picnic
TTITLE6=Stasimo
TTITLE7=Maria 8
TTITLE8=Maria 6
TTITLE9=Dessert at Desert
TTITLE10=Maria 5
TTITLE11=Maria 3
TTITLE12=Flying with Wedding
EXTD=YEAR: 2002
EXTT0=
EXTT1=
EXTT2=
EXTT3=
EXTT4=
EXTT5=
EXTT6=
EXTT7=
EXTT8=
EXTT9=
EXTT10=
EXTT11=
EXTT12=
PLAYORDER=
